<?xml version="1.0" encoding="utf-8"?>
<!-- Generator: Adobe Illustrator 16.0.0, SVG Export Plug-In . SVG Version: 6.00 Build 0)  -->
<!DOCTYPE svg PUBLIC "-//W3C//DTD SVG 1.1//EN" "http://www.w3.org/Graphics/SVG/1.1/DTD/svg11.dtd">
<svg version="1.1" id="レイヤー_1" xmlns="http://www.w3.org/2000/svg" xmlns:xlink="http://www.w3.org/1999/xlink" x="0px"
	 y="0px" width="400px" height="400px" viewBox="0 0 400 400" enable-background="new 0 0 400 400" xml:space="preserve">
<g>
	<path fill="#006AB7" d="M384.485,131.803c24.296,64.37,11.934,143.236-30.691,196.098c-47.323,53.285-112.546,79.3-185.875,68.633
		C98.852,382.907,29.796,325.349,12.314,254.997C-8.155,174.854,18.275,97.265,81.797,46.963
		c54.995-43.062,137.274-54.146,201.227-23.02C327.789,41.842,367.429,88.315,384.485,131.803z"/>
	<path fill="#FFFFFF" d="M242.524,79.367l-31.554,58.396c9.384-8.096,23.881-8.096,35.816-3.836c4.687-0.424,8.097-5.11,8.524-8.946
		c0.424-11.085-2.126-19.183-4.263-29.418l31.975,55.423c1.278,6.812,1.278,14.92-3.834,20.032
		c-29.843,24.729-61.82-23.444-90.811,8.523c-10.236,14.496-19.608,29.417-26.856,45.188c6.823-2.125,14.495-7.673,21.744-11.5
		c35.805-17.056,70.343,5.972,98.899,24.721c6.396,0.425,14.495,0.425,18.766-5.972c9.374-20.884-0.859-43.053-6.398-62.659
		l57.125,97.197c2.561,8.523,1.701,16.196-2.562,23.87c-4.687,6.396-11.084,8.948-18.332,9.817
		c-50.726-3.846-84.403-55.007-141.536-39.235c-26.43,5.122-48.165,21.744-69.058,39.235H35.334L162.375,76.38l37.514-67.791
		C215.233,31.192,228.455,55.913,242.524,79.367z"/>
</g>
</svg>
